<svg width="9" height="10" viewBox="0 0 9 10" xmlns="http://www.w3.org/2000/svg" xmlns:xlink="http://www.w3.org/1999/xlink"><title>16DB3C1A-C3B4-4781-9AB3-FC79A7AF6D92</title><defs><path id="a" d="M8.735 0v9.998H0V0h8.735z"/></defs><g fill="none" fill-rule="evenodd"><mask id="b" fill="#fff"><use xlink:href="#a"/></mask><path d="M5.247 5.094c-.486.47-1.273.47-1.76 0-.484-.472-.484-1.236 0-1.708.487-.47 1.274-.47 1.76 0 .485.472.485 1.236 0 1.708m2.21-3.852c-1.707-1.656-4.472-1.656-6.178 0-1.706 1.656-1.706 4.34 0 5.996L3.95 9.83c.23.224.605.224.836 0l2.67-2.592c1.705-1.656 1.705-4.34 0-5.996" fill="#FFD400" mask="url(#b)"/></g></svg>