<svg width="213" height="26" viewBox="0 0 213 26" xmlns="http://www.w3.org/2000/svg" xmlns:xlink="http://www.w3.org/1999/xlink"><title>A5267C8A-652E-4BBC-B791-3D21A581A743</title><defs><path id="a" d="M18.704.135H.334v25.517h18.37V.135z"/><path id="c" d="M19.412 19.35V.295H.295V19.35h19.117z"/></defs><g fill="none" fill-rule="evenodd"><path d="M0 16.366c0-5.562 4.04-9.508 9.578-9.508 3.703 0 5.95 1.616 7.146 3.27l-3.106 2.93c-.86-1.277-2.17-1.953-3.816-1.953-2.88 0-4.9 2.104-4.9 5.26 0 3.158 2.02 5.3 4.9 5.3 1.646 0 2.956-.752 3.816-1.992l3.106 2.932c-1.197 1.653-3.443 3.306-7.146 3.306C4.04 25.91 0 21.967 0 16.367z" fill="#333"/><path d="M32.847 16.366c0-2.818-1.646-5.26-4.64-5.26-2.955 0-4.6 2.442-4.6 5.26 0 2.856 1.645 5.3 4.6 5.3 2.994 0 4.64-2.444 4.64-5.3m-14.18 0c0-5.15 3.592-9.508 9.54-9.508 5.987 0 9.58 4.36 9.58 9.508 0 5.15-3.593 9.545-9.58 9.545-5.948 0-9.54-4.395-9.54-9.544" fill="#FFF"/><path d="M63 25.46V14c0-1.69-.748-2.893-2.694-2.893-1.683 0-3.067 1.127-3.74 2.104v12.25h-4.79V14c0-1.69-.748-2.893-2.693-2.893-1.647 0-3.03 1.127-3.742 2.104v12.25h-4.75V7.31h4.75v2.33c.787-1.053 3.144-2.782 5.913-2.782 2.656 0 4.377 1.24 5.013 3.27 1.047-1.616 3.44-3.27 6.21-3.27 3.33 0 5.313 1.766 5.313 5.487V25.46H63zM84.772 16.366c0-2.818-1.646-5.26-4.64-5.26-2.955 0-4.6 2.442-4.6 5.26 0 2.856 1.645 5.3 4.6 5.3 2.994 0 4.64-2.444 4.64-5.3m-14.18 0c0-5.15 3.592-9.508 9.54-9.508 5.987 0 9.58 4.36 9.58 9.508 0 5.15-3.593 9.545-9.58 9.545-5.948 0-9.54-4.395-9.54-9.544" fill="#333"/><g transform="translate(91.77 .26)"><mask id="b" fill="#fff"><use xlink:href="#a"/></mask><path d="M13.915 19.34v-6.427c-.786-1.203-2.507-2.068-4.078-2.068-2.73 0-4.602 2.143-4.602 5.262 0 3.157 1.87 5.3 4.602 5.3 1.57 0 3.292-.865 4.078-2.068zm0 5.862v-2.33c-1.422 1.803-3.367 2.78-5.575 2.78-4.527 0-8.006-3.457-8.006-9.545 0-5.9 3.405-9.508 8.006-9.508 2.133 0 4.153.9 5.575 2.78V.135h4.79v25.067h-4.79z" fill="#333" mask="url(#b)"/></g><g transform="translate(113.73 6.562)"><mask id="d" fill="#fff"><use xlink:href="#c"/></mask><path d="M14.474 9.804c0-2.818-1.646-5.26-4.64-5.26-2.955 0-4.6 2.442-4.6 5.26 0 2.856 1.645 5.3 4.6 5.3 2.994 0 4.64-2.444 4.64-5.3m-14.18 0c0-5.15 3.592-9.508 9.54-9.508 5.987 0 9.578 4.36 9.578 9.508 0 5.15-3.59 9.545-9.577 9.545-5.95 0-9.54-4.397-9.54-9.546" fill="#333" mask="url(#d)"/></g><path fill="#FFF" d="M23.77 5.607h9.164V1.34H23.77"/><g stroke="#FFF" fill="#FFF"><path d="M142.71 16.393c0-2.062 1.493-3.47 3.386-3.47 1.062 0 1.873.472 2.434 1.186l-.48.31c-.42-.583-1.152-.975-1.954-.975-1.563 0-2.785 1.198-2.785 2.948 0 1.73 1.223 2.95 2.786 2.95.802 0 1.533-.394 1.953-.977l.49.3c-.6.736-1.382 1.2-2.444 1.2-1.893 0-3.386-1.41-3.386-3.473M158.726 16.393c0-1.7-1.042-2.948-2.645-2.948-1.612 0-2.643 1.248-2.643 2.948 0 1.69 1.03 2.95 2.644 2.95 1.604 0 2.646-1.26 2.646-2.95m-5.89 0c0-1.96 1.282-3.47 3.245-3.47 1.955 0 3.247 1.51 3.247 3.47 0 1.962-1.292 3.472-3.246 3.472-1.962 0-3.245-1.51-3.245-3.472M164.003 19.744v-6.71h.58v6.187h3.236v.524zM172.396 19.744v-6.71h4.237v.522h-3.666v2.485h3.596v.525h-3.596v2.656h3.666v.524zM183.153 19.744v-6.188h-2.184v-.523h4.948v.523h-2.184v6.188zM190.504 19.744h.57v-6.712h-.57zM198.196 19.744l-2.735-6.71h.663l2.434 6.066 2.424-6.067h.662l-2.735 6.71zM211.468 16.393c0-1.7-1.042-2.948-2.645-2.948-1.613 0-2.645 1.248-2.645 2.948 0 1.69 1.032 2.95 2.645 2.95 1.603 0 2.645-1.26 2.645-2.95m-5.89 0c0-1.96 1.28-3.47 3.245-3.47 1.953 0 3.245 1.51 3.245 3.47 0 1.962-1.292 3.472-3.245 3.472-1.964 0-3.246-1.51-3.246-3.472"/></g></g></svg>