<svg width="9" height="9" viewBox="0 0 9 9" xmlns="http://www.w3.org/2000/svg" xmlns:xlink="http://www.w3.org/1999/xlink"><title>246CC130-62AC-4B59-94D3-4D918C9C5ECE</title><defs><path id="a" d="M0 9h9V0H0z"/></defs><g fill="none" fill-rule="evenodd"><mask id="b" fill="#fff"><use xlink:href="#a"/></mask><path d="M1.154 7.816h6.692V3.08H1.154v4.736zM.692 9h7.616c.555 0 .685-.115.692-.71V1.42c0-.555-.088-.71-.692-.71h-.462V2.02c0 .29-.288.35-.577.35H6.114c-.288 0-.346-.063-.346-.355V.71H3.23V2.02c0 .29-.057.35-.345.35H1.5c-.288 0-.346-.063-.346-.355V.71H.692C.097.71 0 .844 0 1.42v6.87c-.002.575.137.71.692.71zm6.23-2.245V6.28c0-.295-.06-.354-.345-.354l-.462-.005c-.274 0-.346.067-.346.356v.474c0 .29.057.355.345.355h.462c.288 0 .346-.06.346-.35zm-1.845 0V6.28c0-.295-.062-.354-.346-.354l-.46-.005c-.275 0-.347.067-.347.356v.474c0 .29.058.355.346.355h.46c.29 0 .347-.06.347-.35zm-1.846 0V6.28c0-.295-.06-.354-.345-.354l-.462-.005c-.274 0-.346.067-.346.356v.474c0 .29.058.355.346.355h.462c.288 0 .346-.06.346-.35zM6.924 4.86v-.474c0-.296-.062-.355-.346-.355l-.462-.004c-.274 0-.346.067-.346.356v.473c0 .292.057.356.345.356h.462c.288 0 .346-.06.346-.35zm-1.846 0v-.474c0-.296-.062-.355-.346-.355l-.46-.004c-.275 0-.347.067-.347.356v.473c0 .292.058.356.346.356h.46c.29 0 .347-.06.347-.35zm-1.846 0v-.474c0-.296-.06-.355-.345-.355l-.462-.004c-.274 0-.346.067-.346.356v.473c0 .292.058.356.346.356h.462c.288 0 .346-.06.346-.35zm4.155-3.316V.36c0-.296-.063-.355-.347-.355L6.578 0C6.3 0 6.23.066 6.23.355V1.54c0 .29.058.355.347.355h.46c.29 0 .348-.06.348-.35zm-4.616 0V.36c0-.296-.063-.355-.347-.355L1.963 0c-.276 0-.348.066-.348.355V1.54c0 .29.058.355.347.355h.46c.29 0 .347-.06.347-.35z" fill="#FFD400" mask="url(#b)"/></g></svg>