<svg width="9" height="11" viewBox="0 0 9 11" xmlns="http://www.w3.org/2000/svg"><title>19572006-454C-4B34-B621-0F5ED9AD5D56</title><g fill="#FFD400" fill-rule="evenodd"><path d="M4.587 3.553c-.23 0-.415.195-.415.435v2.028H2.268c-.23 0-.415.195-.415.435s.186.436.415.436h2.32c.228 0 .414-.195.414-.435V3.99c0-.24-.186-.435-.415-.435"/><path d="M4.45 9.42c-1.84 0-3.336-1.52-3.336-3.387 0-1.868 1.497-3.387 3.336-3.387 1.84 0 3.336 1.52 3.336 3.387S6.29 9.42 4.45 9.42M8.9 6.032c0-1.515-.74-2.915-1.985-3.76l.19-.32c.396.265.748.59 1.05.966l.073.09.287-.82.002-.008c.106-.375-.188-.805-.85-1.245l.29-.512L7.99.36 7.985.356c.006-.023.01-.048.01-.072 0-.157-.127-.284-.28-.284-.087 0-.167.04-.22.108H7.49L7.184.65C6.77.433 6.418.323 6.138.323c-.206 0-.37.06-.485.182l-.557.686.118.018c.492.076.966.23 1.41.458l-.193.323c-.62-.316-1.285-.475-1.98-.475-.694 0-1.36.16-1.98.474l-.192-.324c.445-.23.918-.382 1.41-.457l.116-.02-.552-.68-.004-.005c-.116-.122-.28-.183-.486-.183-.28 0-.63.11-1.046.33L1.43.14 1.387.067l-.01.01C1.327.025 1.26 0 1.187 0 1.034 0 .91.127.91.284c0 .012 0 .025.002.037H.886l.347.617c-.662.44-.955.87-.85 1.245l.29.83.074-.093c.3-.377.653-.702 1.047-.968l.192.322C.74 3.117 0 4.517 0 6.034c0 1.534.687 2.872 1.955 3.712l-.393.673-.057.102h.023c-.002.013-.002.025-.002.038 0 .156.228.32.382.32.085 0 .166-.04.22-.11h.003l.38-.673c.61.3 1.26.454 1.94.454.68 0 1.332-.152 1.94-.453l.36.64.02.034h.004c.053.07.134.11.22.11.153 0 .38-.2.38-.356 0-.012 0-.025-.002-.037h.025l-.418-.74c1.268-.842 1.92-2.18 1.92-3.714"/></g></svg>