<svg width="14" height="30" viewBox="0 0 14 30" xmlns="http://www.w3.org/2000/svg"><title>91ED7D17-299E-4619-BDDF-14AE563C47F4</title><g fill="#FFD400" fill-rule="evenodd"><path d="M5.83 7.073h2.3v-.63h-2.3M5.83 12.898h2.3v-.63h-2.3"/><path d="M6.98 27.692c-2.554 0-4.626-2.04-4.626-4.556 0-1.688.943-3.145 2.328-3.932V5.09c0-1.232 1.048-2.23 2.298-2.23s2.3.998 2.3 2.23v14.114c1.385.788 2.327 2.245 2.327 3.932 0 2.516-2.068 4.556-4.627 4.556m4.344-9.938V4.274C11.324 1.915 9.38 0 6.98 0 4.584 0 2.455 1.915 2.455 4.275v13.627C.955 19.162 0 21.035 0 23.13 0 26.923 3.124 30 6.98 30c3.856 0 6.98-3.076 6.98-6.87 0-2.18-1.03-4.117-2.636-5.376"/><path d="M8.217 20.145v-4.437H5.744v4.437c-1.2.482-2.046 1.637-2.046 2.99 0 1.786 1.47 3.233 3.282 3.233 1.815 0 3.282-1.447 3.282-3.232 0-1.354-.845-2.51-2.045-2.99"/></g></svg>