<svg width="26" height="29" viewBox="0 0 26 29" xmlns="http://www.w3.org/2000/svg"><title>34AA7212-9C1F-4577-9DD6-A34A2158CF2F</title><g fill="none" fill-rule="evenodd"><path d="M16.59 26.816c-1.99 1.907-5.223 1.9-7.207 0L3.87 21.532c-5.16-4.947-5.16-12.966 0-17.913 5.035-4.826 13.198-4.826 18.232 0 5.16 4.946 5.16 12.965 0 17.912l-5.513 5.284z" fill="#FFF"/><path d="M13 19.533c-3.077-2.06-7.47-5.748-7.47-7.882 0-1.606 1.28-3.83 3.68-3.83 2.186 0 2.958 1.776 2.987 1.847.126.312.444.516.798.52H13c.353 0 .67-.206.8-.515.032-.076.804-1.853 2.988-1.853 2.402 0 3.682 2.224 3.682 3.83 0 2.132-4.394 5.82-7.47 7.883m3.788-13.33c-1.896 0-3.093.87-3.788 1.655-.695-.786-1.892-1.655-3.79-1.655-3.228 0-5.397 2.817-5.397 5.448 0 3.83 7.812 8.963 8.703 9.536.146.094.315.14.484.14.17 0 .338-.046.484-.14.89-.573 8.703-5.706 8.703-9.535 0-2.63-2.17-5.447-5.4-5.447" fill="#333"/></g></svg>