<svg width="119" height="33" viewBox="0 0 119 33" xmlns="http://www.w3.org/2000/svg"><title>07219DE1-3709-46D6-985D-1BBA2E8C13FB</title><g fill="#333" fill-rule="evenodd"><path d="M.953 11.437c-.39.12-.642.51-.642 1.097l.003 18.514c0 .582.245.965.624 1.093l10.51-10.36L.954 11.437"/><path d="M.937 32.14c.272.092.614.05.986-.152l12.828-6.953-3.302-3.255L.938 32.14"/><path d="M14.753 25.035l4.374-2.37c.887-.482.887-1.267 0-1.748l-4.39-2.38-3.29 3.242 3.306 3.255"/><path d="M14.736 18.538L1.923 11.595c-.363-.196-.698-.242-.97-.158L11.448 21.78l3.288-3.242M37.695 26.31l-2.717.613c-1.1.17-2.09.32-3.136.32-5.24 0-7.236-3.8-7.236-6.775 0-3.633 2.83-7.002 7.674-7.002 1.025 0 2.01.15 2.91.39 1.423.394 2.09.88 2.505 1.165L36.117 16.5l-.666.147.476-.745c-.643-.62-1.824-1.76-4.066-1.76-2.997 0-5.258 2.245-5.258 5.523 0 3.52 2.582 6.832 6.722 6.832 1.217 0 1.843-.24 2.412-.465v-3.02l-2.87.153 1.522-.804h4.026l-.493.465c-.132.112-.15.15-.187.3-.02.17-.038.71-.038.902v2.282zm6.23.692c-3.222 0-4.942-2.472-4.942-4.71 0-2.615 2.167-4.853 5.248-4.853 2.978 0 4.842 2.298 4.842 4.71 0 2.36-1.842 4.852-5.147 4.852zm2.535-1.615c.486-.64.607-1.437.607-2.215 0-1.76-.852-5.113-3.363-5.113-.67 0-1.337.257-1.823.677-.792.7-.932 1.577-.932 2.44 0 1.972.993 5.226 3.445 5.226.79 0 1.6-.378 2.067-1.016zm8.25 1.615c-3.222 0-4.945-2.472-4.945-4.71 0-2.615 2.166-4.853 5.248-4.853 2.98 0 4.845 2.298 4.845 4.71 0 2.36-1.844 4.852-5.15 4.852zm2.533-1.615c.49-.64.61-1.437.61-2.215 0-1.76-.85-5.113-3.364-5.113-.67 0-1.343.257-1.828.677-.79.7-.932 1.577-.932 2.44 0 1.972.99 5.226 3.445 5.226.793 0 1.602-.378 2.068-1.016zm10.03-6.968c.465.376 1.436 1.177 1.436 2.694 0 1.48-.847 2.176-1.7 2.836-.262.26-.568.54-.568.977 0 .442.306.682.526.86l.732.557c.89.74 1.702 1.42 1.702 2.798 0 1.88-1.845 3.773-5.33 3.773-2.937 0-4.357-1.378-4.357-2.856 0-.72.363-1.738 1.562-2.436 1.256-.757 2.958-.858 3.87-.917-.285-.363-.61-.742-.61-1.36 0-.34.103-.54.203-.78-.222.02-.445.043-.648.043-2.15 0-3.364-1.58-3.364-3.137 0-.92.425-1.938 1.298-2.677 1.156-.937 2.533-1.1 3.628-1.1h4.176l-1.3.723h-1.257zm-1.436 8.865c-.166-.02-.266-.02-.467-.02-.183 0-1.278.038-2.126.32-.448.16-1.745.638-1.745 2.056 0 1.417 1.4 2.438 3.564 2.438 1.946 0 2.98-.92 2.98-2.157 0-1.017-.67-1.555-2.207-2.635zm.583-3.794c.468-.46.51-1.097.51-1.46 0-1.435-.87-3.672-2.555-3.672-.525 0-1.094.26-1.417.662-.343.416-.446.955-.446 1.474 0 1.338.792 3.556 2.532 3.556.508 0 1.055-.243 1.376-.56zm6.39 1.76c0 .775.142.896.808.956.347.04.693.058 1.035.1l-.75.438h-3.57c.468-.598.548-.658.548-1.057v-.446l-.007-11.873h-1.577l1.52-.72h2.897c-.63.358-.817.576-.897 1.275L72.81 25.25zm9.962.153l-.97.902c-.224.12-.446.262-.67.362-.672.3-1.356.377-1.965.377-.647 0-1.662-.042-2.697-.78-1.438-.998-2.067-2.714-2.067-4.21 0-3.096 2.558-4.615 4.644-4.615.73 0 1.478.18 2.086.56 1.013.66 1.275 1.516 1.42 1.975l-4.764 1.897-1.56.12c.504 2.538 2.247 4.015 4.173 4.015.962 0 1.676-.31 2.33-.628 0 0 .132-.07.04.023zm-2.874-5.05c.386-.138.588-.258.588-.536 0-.797-.916-1.72-2.01-1.72-.81 0-2.328.623-2.328 2.78 0 .337.04.696.06 1.054l3.69-1.576zm8.715 5.136v5.085h-1.025V17.632h1.025v1.474c.667-.953 1.888-1.708 3.305-1.708 2.542 0 4.254 1.9 4.254 4.908 0 2.99-1.712 4.928-4.254 4.928-1.338 0-2.537-.68-3.305-1.745zm6.457-3.184c0-2.267-1.2-3.996-3.325-3.996-1.32 0-2.584 1.023-3.132 1.914v4.144c.548.893 1.81 1.953 3.132 1.953 2.126 0 3.325-1.743 3.325-4.014zm2.5-8.248h1.026V27H97.57V14.06zm9.534 12.915c-.07-.324-.12-.61-.158-.85-.03-.238-.05-.482-.05-.73-.35.508-.85.93-1.484 1.264-.637.336-1.242.5-2.07.5-1 0-1.775-.242-2.328-.733-.55-.49-.83-1.155-.83-1.996 0-.84.403-1.52 1.204-2.043.8-.524 1.837-.784 3.118-.784h2.39v-1.163c0-.67-.23-1.198-.694-1.58-.465-.383-1.117-.577-1.963-.577-.773 0-1.4.177-1.878.522-.473.35-.71.787-.71 1.312h-1.05l-.022-.05c-.038-.708.29-1.33.99-1.865.694-.537 1.605-.806 2.726-.806 1.118 0 2.022.265 2.704.794.68.524 1.022 1.28 1.022 2.27v4.622c0 .332.017.653.06.966.042.313.11.625.203.927h-1.18zm-3.637-.736c.87 0 1.496-.19 2.135-.57.636-.378 1.068-.87 1.295-1.465v-1.8h-2.402c-.918 0-1.678.2-2.275.605-.6.402-.902.89-.902 1.455 0 .535.192.962.574 1.286.383.327.907.49 1.575.49zm6.63 3.5c.22.098.594.157.83.157.628 0 1.065-.253 1.457-1.145l.748-1.67-4.038-9.448h1.143l3.464 8.187 3.43-8.188h1.16l-4.924 11.43c-.51 1.178-1.315 1.744-2.42 1.744-.33 0-.768-.058-1.024-.136l.176-.932z"/><text font-family="HelveticaNeue-Medium, Helvetica Neue" font-size="8.691" font-weight="400" transform="translate(-.37 -1)"><tspan x="27.173" y="8">Em breve na</tspan></text></g></svg>