<svg width="115" height="31" viewBox="0 0 115 31" xmlns="http://www.w3.org/2000/svg"><title>41528BDA-F823-4626-A5B4-4652DADB8339</title><g fill="#333" fill-rule="evenodd"><path d="M43.147 26.04h-2.355l-1.29-3.963H35.02l-1.23 3.964h-2.292l4.442-13.493h2.743l4.464 13.494zm-4.033-5.626l-1.167-3.523c-.123-.36-.354-1.207-.696-2.54h-.04c-.136.573-.355 1.42-.655 2.54l-1.146 3.524h3.704zm15.457.642c0 1.655-.457 2.963-1.37 3.923-.82.854-1.838 1.28-3.052 1.28-1.31 0-2.252-.46-2.825-1.38h-.042v5.125h-2.21v-10.49c0-1.04-.027-2.11-.08-3.204h1.943l.123 1.543h.042c.737-1.162 1.856-1.742 3.357-1.742 1.174 0 2.154.454 2.938 1.362.786.908 1.178 2.103 1.178 3.584zm-2.252.08c0-.948-.217-1.728-.655-2.343-.478-.64-1.12-.96-1.924-.96-.547 0-1.042.177-1.485.53-.444.354-.734.817-.87 1.39-.068.27-.103.488-.103.66v1.623c0 .707.222 1.305.666 1.792.444.488 1.02.73 1.73.73.832 0 1.48-.313 1.944-.94.464-.627.696-1.455.696-2.483zm13.697-.08c0 1.655-.458 2.963-1.373 3.923-.818.854-1.835 1.28-3.05 1.28-1.31 0-2.252-.46-2.824-1.38h-.042v5.125h-2.21v-10.49c0-1.04-.028-2.11-.082-3.204h1.944l.123 1.543h.043c.736-1.162 1.855-1.742 3.357-1.742 1.173 0 2.153.454 2.94 1.362.782.908 1.175 2.103 1.175 3.584zm-2.252.08c0-.948-.22-1.728-.657-2.343-.478-.64-1.117-.96-1.923-.96-.547 0-1.04.177-1.485.53-.444.354-.733.817-.87 1.39-.066.27-.102.488-.102.66v1.623c0 .707.222 1.305.664 1.792.444.487 1.02.73 1.732.73.832 0 1.48-.313 1.944-.94.464-.627.697-1.455.697-2.483zm15.047 1.12c0 1.148-.408 2.082-1.226 2.803-.9.787-2.15 1.18-3.758 1.18-1.485 0-2.676-.28-3.577-.84l.512-1.802c.97.574 2.035.862 3.195.862.833 0 1.48-.185 1.947-.552.463-.367.694-.86.694-1.474 0-.547-.19-1.01-.573-1.383-.38-.373-1.016-.72-1.904-1.042-2.415-.88-3.622-2.172-3.622-3.87 0-1.11.423-2.018 1.27-2.726.844-.71 1.97-1.062 3.38-1.062 1.254 0 2.297.213 3.13.64l-.553 1.763c-.777-.414-1.657-.62-2.64-.62-.778 0-1.386.187-1.82.56-.37.333-.554.74-.554 1.222 0 .533.21.974.635 1.32.368.32 1.036.668 2.007 1.042 1.187.467 2.06 1.014 2.62 1.64.56.625.838 1.407.838 2.34zm7.31-4.323H83.68v4.724c0 1.202.43 1.802 1.29 1.802.395 0 .723-.035.982-.1l.06 1.64c-.434.16-1.008.24-1.718.24-.873 0-1.555-.26-2.048-.78-.49-.522-.737-1.396-.737-2.624V17.93h-1.45v-1.62h1.45v-1.783l2.172-.64v2.422h2.437v1.623zm10.993 3.163c0 1.495-.437 2.723-1.31 3.683-.916.988-2.13 1.48-3.646 1.48-1.46 0-2.622-.473-3.49-1.42-.866-.947-1.3-2.142-1.3-3.583 0-1.508.446-2.743 1.34-3.703.894-.96 2.1-1.442 3.614-1.442 1.46 0 2.635.474 3.522 1.422.848.92 1.27 2.107 1.27 3.562zm-2.293.07c0-.898-.196-1.667-.594-2.31-.463-.776-1.126-1.163-1.984-1.163-.89 0-1.564.388-2.027 1.164-.397.643-.593 1.425-.593 2.35 0 .897.196 1.666.593 2.307.478.777 1.145 1.164 2.007 1.164.844 0 1.507-.395 1.985-1.184.407-.654.613-1.432.613-2.328zm9.48-2.954c-.22-.04-.453-.06-.698-.06-.778 0-1.38.287-1.802.862-.368.507-.553 1.148-.553 1.922v5.105h-2.21l.02-6.665c0-1.12-.027-2.142-.082-3.063h1.926l.082 1.862h.06c.234-.64.602-1.155 1.106-1.542.493-.347 1.025-.52 1.598-.52.204 0 .39.013.553.04v2.06zm9.886 2.504c0 .387-.026.713-.08.98h-6.633c.026.96.346 1.696.962 2.203.56.452 1.282.68 2.17.68.98 0 1.877-.153 2.683-.46l.346 1.5c-.942.4-2.053.6-3.336.6-1.543 0-2.754-.443-3.635-1.33-.88-.887-1.32-2.08-1.32-3.573 0-1.467.41-2.69 1.23-3.664.858-1.04 2.018-1.56 3.478-1.56 1.435 0 2.52.52 3.258 1.56.584.827.878 1.85.878 3.063zm-2.108-.56c.014-.642-.13-1.196-.43-1.663-.382-.6-.97-.9-1.76-.9-.724 0-1.312.292-1.76.88-.37.467-.588 1.028-.655 1.68h4.605v.002zM18.468 14.578c-.03-3.294 2.76-4.897 2.887-4.97-1.58-2.253-4.03-2.56-4.89-2.585-2.057-.21-4.052 1.203-5.1 1.203-1.068 0-2.682-1.182-4.42-1.148-2.24.034-4.333 1.3-5.48 3.267-2.37 4.01-.603 9.9 1.667 13.14 1.136 1.59 2.463 3.36 4.2 3.298 1.7-.068 2.334-1.058 4.385-1.058 2.032 0 2.628 1.058 4.4 1.02 1.823-.03 2.97-1.596 4.067-3.197 1.312-1.82 1.84-3.61 1.86-3.703-.042-.014-3.54-1.32-3.576-5.267zM15.122 4.89c.914-1.116 1.54-2.635 1.365-4.178-1.322.058-2.977.895-3.93 1.987-.842.962-1.595 2.54-1.4 4.024 1.485.108 3.01-.733 3.965-1.833z"/><text font-family="HelveticaNeue-Medium, Helvetica Neue" font-size="8.691" font-weight="400" transform="translate(-.052 -1.22)"><tspan x="35.077" y="8.362">Em breve na</tspan></text></g></svg>