<svg width="19" height="19" viewBox="0 0 19 19" xmlns="http://www.w3.org/2000/svg"><title>26C512AC-3BBC-46AF-B96D-B42C7D0862D0</title><path d="M14.19 14.19c-2.524 2.523-6.532 2.68-9.24.472L14.66 4.95c2.208 2.708 2.05 6.716-.473 9.24M4.425 4.425C5.772 3.08 7.54 2.408 9.308 2.408c1.547 0 3.094.515 4.358 1.546l-9.712 9.712c-2.21-2.708-2.05-6.716.472-9.24m10.76-.995C11.943.19 6.67.19 3.43 3.43s-3.24 8.515 0 11.755c1.62 1.62 3.75 2.43 5.878 2.43s4.257-.81 5.877-2.43c3.24-3.24 3.24-8.514 0-11.754" stroke="#333" fill="#333" fill-rule="evenodd"/></svg>