<svg width="26" height="30" viewBox="0 0 26 30" xmlns="http://www.w3.org/2000/svg" xmlns:xlink="http://www.w3.org/1999/xlink"><title>068A6BF9-8D70-4B88-A607-887E7D424DB0</title><defs><path id="a" d="M0 19.077h19.2V0H0v19.077z"/></defs><g fill="none" fill-rule="evenodd"><path d="M16.51 28.275c-1.946 1.962-5.1 1.962-7.048 0L3.87 22.64c-5.16-5.2-5.16-13.634 0-18.835 5.035-5.073 13.198-5.073 18.232 0 5.16 5.2 5.16 13.634 0 18.835l-5.59 5.635z" fill="#FFD400"/><g transform="translate(3.467 3.444)"><mask id="b" fill="#fff"><use xlink:href="#a"/></mask><path d="M15.24 15.143c-2.915 2.898-7.546 3.08-10.676.543l11.223-11.15c2.552 3.11 2.37 7.71-.546 10.607M3.96 3.933C5.513 2.39 7.556 1.617 9.6 1.617c1.788 0 3.576.592 5.037 1.775L3.413 14.544c-2.552-3.11-2.37-7.71.546-10.61M16.39 2.792c-3.745-3.72-9.84-3.72-13.583 0-3.746 3.722-3.746 9.776 0 13.497 1.87 1.86 4.33 2.79 6.79 2.79s4.92-.93 6.792-2.79c3.745-3.72 3.745-9.775 0-13.496" fill="#4A4A4A" mask="url(#b)"/></g></g></svg>