<svg width="20" height="18" viewBox="0 0 20 18" xmlns="http://www.w3.org/2000/svg"><title>126ACB0C-DA41-4FB8-A96F-B86D5D75D063</title><path d="M10 15.12c-3.014-2.144-7.318-5.98-7.318-8.2 0-1.672 1.253-3.986 3.606-3.986 2.14 0 2.897 1.848 2.926 1.922.123.324.434.537.78.54h.007c.346 0 .657-.214.784-.535.03-.078.787-1.926 2.927-1.926 2.355 0 3.608 2.314 3.608 3.985 0 2.217-4.304 6.054-7.318 8.2M13.71 1.25c-1.857 0-3.03.904-3.71 1.722-.68-.818-1.853-1.722-3.712-1.722C3.125 1.252 1 4.182 1 6.92c0 3.984 7.653 9.324 8.526 9.92.143.096.308.145.474.145.166 0 .33-.05.474-.146.873-.596 8.526-5.936 8.526-9.92 0-2.738-2.125-5.668-5.29-5.668" stroke="#333" fill="#333" fill-rule="evenodd"/></svg>