<?xml version="1.0" encoding="UTF-8" standalone="no"?>
<svg width="213px" height="26px" viewBox="0 0 213 26" version="1.1" xmlns="http://www.w3.org/2000/svg" xmlns:xlink="http://www.w3.org/1999/xlink">
    <!-- Generator: sketchtool 3.7.2 (28276) - http://www.bohemiancoding.com/sketch -->
    <title>A5267C8A-652E-4BBC-B791-3D21A581A743</title>
    <desc>Created with sketchtool.</desc>
    <defs>
        <polygon id="path-1" points="18.7038233 0.135121212 0.3338988 0.135121212 0.3338988 25.6524667 18.7038233 25.6524667 18.7038233 0.135121212"></polygon>
        <polygon id="path-3" points="19.4123288 19.349397 19.4123288 0.296124242 0.294602747 0.296124242 0.294602747 19.349397 19.4123288 19.349397"></polygon>
    </defs>
    <g id="findtruck" stroke="none" stroke-width="1" fill="none" fill-rule="evenodd">
        <g id="about" transform="translate(-442.000000, -136.000000)">
            <g id="Page-1" transform="translate(442.000000, 136.000000)">
                <path d="M0,16.3661727 C0,10.8041424 4.04059119,6.85805152 9.57772669,6.85805152 C13.2814385,6.85805152 15.5266472,8.47399091 16.7239611,10.1277485 L13.6183179,13.0586576 C12.7578833,11.7811121 11.4484071,11.1047182 9.80205146,11.1047182 C6.92112524,11.1047182 4.90102573,13.2091424 4.90102573,16.3661727 C4.90102573,19.5228091 6.92112524,21.6650515 9.80205146,21.6650515 C11.4484071,21.6650515 12.7578833,20.9134152 13.6183179,19.6732939 L16.7239611,22.604597 C15.5266472,24.2579606 13.2814385,25.9113242 9.57772669,25.9113242 C4.04059119,25.9113242 0,21.9656273 0,16.3661727 L0,16.3661727 Z" id="Fill-1" fill="#333333"></path>
                <path d="M32.847069,16.3661727 C32.847069,13.5475364 31.2011056,11.1047182 28.2080169,11.1047182 C25.2521851,11.1047182 23.6062216,13.5475364 23.6062216,16.3661727 C23.6062216,19.2222333 25.2521851,21.6650515 28.2080169,21.6650515 C31.2011056,21.6650515 32.847069,19.2222333 32.847069,16.3661727 M18.667547,16.3661727 C18.667547,11.2173848 22.2590965,6.85805152 28.2080169,6.85805152 C34.1941942,6.85805152 37.7857436,11.2173848 37.7857436,16.3661727 C37.7857436,21.5145667 34.1941942,25.9113242 28.2080169,25.9113242 C22.2590965,25.9113242 18.667547,21.5145667 18.667547,16.3661727" id="Fill-3" fill="#FFFFFF"></path>
                <path d="M63.0002013,25.4606182 L63.0002013,13.9981636 C63.0002013,12.3069818 62.2519292,11.1046788 60.3063432,11.1046788 C58.6227308,11.1046788 57.2387411,12.2321333 56.5653746,13.209103 L56.5653746,25.4606182 L51.7765112,25.4606182 L51.7765112,13.9981636 C51.7765112,12.3069818 51.0282391,11.1046788 49.082653,11.1046788 C47.4362974,11.1046788 46.0519155,12.2321333 45.3412923,13.209103 L45.3412923,25.4606182 L40.5896857,25.4606182 L40.5896857,7.30907273 L45.3412923,7.30907273 L45.3412923,9.63922424 C46.1272133,8.58661818 48.4838,6.85801212 51.2525638,6.85801212 C53.9087731,6.85801212 55.6296422,8.09813333 56.265752,10.1277091 C57.3132545,8.5117697 59.7074901,6.85801212 62.476254,6.85801212 C65.8058297,6.85801212 67.7890647,8.62443636 67.7890647,12.3448 L67.7890647,25.4606182 L63.0002013,25.4606182 Z" id="Fill-5" fill="#333333"></path>
                <path d="M84.7720973,16.3661727 C84.7720973,13.5475364 83.1261339,11.1047182 80.1330453,11.1047182 C77.1772134,11.1047182 75.53125,13.5475364 75.53125,16.3661727 C75.53125,19.2222333 77.1772134,21.6650515 80.1330453,21.6650515 C83.1261339,21.6650515 84.7720973,19.2222333 84.7720973,16.3661727 M70.5925753,16.3661727 C70.5925753,11.2173848 74.1841248,6.85805152 80.1330453,6.85805152 C86.1192225,6.85805152 89.710772,11.2173848 89.710772,16.3661727 C89.710772,21.5145667 86.1192225,25.9113242 80.1330453,25.9113242 C74.1841248,25.9113242 70.5925753,21.5145667 70.5925753,16.3661727" id="Fill-7" fill="#333333"></path>
                <g id="Group-11" transform="translate(91.769226, 0.258897)">
                    <mask id="mask-2" fill="white">
                        <use xlink:href="#path-1"></use>
                    </mask>
                    <g id="Clip-10"></g>
                    <path d="M13.9149599,19.3391939 L13.9149599,12.9128606 C13.1290389,11.7101636 11.4081698,10.8454667 9.83711201,10.8454667 C7.10560491,10.8454667 5.23492453,12.988103 5.23492453,16.1073152 C5.23492453,19.2639515 7.10560491,21.4061939 9.83711201,21.4061939 C11.4081698,21.4061939 13.1290389,20.5418909 13.9149599,19.3391939 L13.9149599,19.3391939 Z M13.9149599,25.2018 L13.9149599,22.8716485 C12.4929291,24.675497 10.5477353,25.6524667 8.34017553,25.6524667 C3.81328588,25.6524667 0.3338988,22.1952545 0.3338988,16.1073152 C0.3338988,10.2068909 3.7387724,6.59919394 8.34017553,6.59919394 C10.4728296,6.59919394 12.4929291,7.50092121 13.9149599,9.38040606 L13.9149599,0.135042424 L18.7038233,0.135042424 L18.7038233,25.2018 L13.9149599,25.2018 Z" id="Fill-9" fill="#333333" mask="url(#mask-2)"></path>
                </g>
                <g id="Group-14" transform="translate(113.731092, 6.561927)">
                    <mask id="mask-4" fill="white">
                        <use xlink:href="#path-3"></use>
                    </mask>
                    <g id="Clip-13"></g>
                    <path d="M14.4741247,9.80424545 C14.4741247,6.98560909 12.8277691,4.54279091 9.83468052,4.54279091 C6.87924082,4.54279091 5.23327739,6.98560909 5.23327739,9.80424545 C5.23327739,12.6603061 6.87924082,15.1031242 9.83468052,15.1031242 C12.8277691,15.1031242 14.4741247,12.6603061 14.4741247,9.80424545 M0.294602747,9.80424545 C0.294602747,4.65545758 3.88615221,0.296124242 9.83468052,0.296124242 C15.8208577,0.296124242 19.4124072,4.65545758 19.4124072,9.80424545 C19.4124072,14.9526394 15.8208577,19.349397 9.83468052,19.349397 C3.88615221,19.349397 0.294602747,14.9526394 0.294602747,9.80424545" id="Fill-12" fill="#333333" mask="url(#mask-4)"></path>
                </g>
                <polygon id="Fill-15" fill="#FFFFFF" points="23.7705827 5.60701818 32.9341713 5.60701818 32.9341713 1.33907879 23.7705827 1.33907879"></polygon>
                <g id="Group-13" transform="translate(142.000000, 12.000000)" stroke="#FFFFFF" fill="#FFFFFF">
                    <path d="M0.70991206,4.39336667 C0.70991206,2.3307 2.20292678,0.921578788 4.09596121,0.921578788 C5.1579743,0.921578788 5.96899465,1.3947 6.53019876,2.10891212 L6.04939076,2.42091212 C5.62858572,1.83748788 4.89756932,1.44512424 4.09596121,1.44512424 C2.53313912,1.44512424 1.31111815,2.6427 1.31111815,4.39336667 C1.31111815,6.12433636 2.53313912,7.34160909 4.09596121,7.34160909 C4.89756932,7.34160909 5.62858572,6.94924545 6.04939076,6.36582121 L6.54000316,6.66718485 C5.93918926,7.40227576 5.1579743,7.86515455 4.09596121,7.86515455 C2.20292678,7.86515455 0.70991206,6.45603333 0.70991206,4.39336667" id="Fill-17"></path>
                    <path d="M16.7259559,4.39336667 C16.7259559,2.69312424 15.6839438,1.44512424 14.0811197,1.44512424 C12.4684913,1.44512424 11.4366757,2.69312424 11.4366757,4.39336667 C11.4366757,6.08376061 12.4684913,7.34160909 14.0811197,7.34160909 C15.6839438,7.34160909 16.7259559,6.08376061 16.7259559,4.39336667 M10.8354697,4.39336667 C10.8354697,2.43154848 12.1178858,0.921578788 14.0811197,0.921578788 C16.0345493,0.921578788 17.3267698,2.43154848 17.3267698,4.39336667 C17.3267698,6.35518485 16.0345493,7.86515455 14.0811197,7.86515455 C12.1178858,7.86515455 10.8354697,6.35518485 10.8354697,4.39336667" id="Fill-18"></path>
                    <polygon id="Fill-19" points="22.0030786 7.74417576 22.0030786 1.0326303 22.5838915 1.0326303 22.5838915 7.22102424 25.819345 7.22102424 25.819345 7.74417576"></polygon>
                    <polygon id="Fill-20" points="30.3958057 7.74417576 30.3958057 1.0326303 34.6332694 1.0326303 34.6332694 1.55578182 30.9668142 1.55578182 30.9668142 4.04114545 34.5630698 4.04114545 34.5630698 4.56469091 30.9668142 4.56469091 30.9668142 7.22102424 34.6332694 7.22102424 34.6332694 7.74417576"></polygon>
                    <polygon id="Fill-21" points="41.1526885 7.74417576 41.1526885 1.55578182 38.9690516 1.55578182 38.9690516 1.0326303 43.9175306 1.0326303 43.9175306 1.55578182 41.7335015 1.55578182 41.7335015 7.74417576"></polygon>
                    <polygon id="Fill-22" points="48.5037173 7.74401818 49.0747258 7.74401818 49.0747258 1.03247273 48.5037173 1.03247273"></polygon>
                    <polygon id="Fill-23" points="56.1959393 7.74417576 53.4612948 1.0326303 54.1225039 1.0326303 56.5567414 7.10008485 58.9811746 1.0326303 59.6419914 1.0326303 56.9069548 7.74417576"></polygon>
                    <path d="M69.4675343,4.39336667 C69.4675343,2.69312424 68.4255222,1.44512424 66.8226981,1.44512424 C65.2100696,1.44512424 64.1782541,2.69312424 64.1782541,4.39336667 C64.1782541,6.08376061 65.2100696,7.34160909 66.8226981,7.34160909 C68.4255222,7.34160909 69.4675343,6.08376061 69.4675343,4.39336667 M63.577048,4.39336667 C63.577048,2.43154848 64.8594641,0.921578788 66.8226981,0.921578788 C68.7761277,0.921578788 70.0683482,2.43154848 70.0683482,4.39336667 C70.0683482,6.35518485 68.7761277,7.86515455 66.8226981,7.86515455 C64.8594641,7.86515455 63.577048,6.35518485 63.577048,4.39336667" id="Fill-24"></path>
                </g>
            </g>
        </g>
    </g>
</svg>