<?xml version="1.0" encoding="UTF-8" standalone="no"?>
<svg width="9px" height="9px" viewBox="0 0 9 9" version="1.1" xmlns="http://www.w3.org/2000/svg" xmlns:xlink="http://www.w3.org/1999/xlink">
    <!-- Generator: sketchtool 3.7.2 (28276) - http://www.bohemiancoding.com/sketch -->
    <title>246CC130-62AC-4B59-94D3-4D918C9C5ECE</title>
    <desc>Created with sketchtool.</desc>
    <defs>
        <polygon id="path-1" points="0 9 9 9 9 0 0 0"></polygon>
    </defs>
    <g id="findtruck" stroke="none" stroke-width="1" fill="none" fill-rule="evenodd">
        <g id="inicial" transform="translate(-43.000000, -408.000000)">
            <g id="Navbar">
                <g id="Group-8" transform="translate(29.000000, 327.000000)">
                    <g id="Group-6" transform="translate(0.000000, 34.000000)">
                        <g id="endereço-copy" transform="translate(14.000000, 45.000000)">
                            <g id="Page-1" transform="translate(0.000000, 2.000000)">
                                <mask id="mask-2" fill="white">
                                    <use xlink:href="#path-1"></use>
                                </mask>
                                <g id="Clip-2"></g>
                                <path d="M1.15384615,7.81578947 L7.84615385,7.81578947 L7.84615385,3.07894737 L1.15384615,3.07894737 L1.15384615,7.81578947 Z M0.692307692,9 L8.30769231,9 C8.86292308,9 8.99284615,8.88525 9,8.28947368 L9,1.42105263 C9,0.864592105 8.91230769,0.710526316 8.30769231,0.710526316 L7.84615385,0.710526316 L7.84615385,2.01777632 C7.84615385,2.30921053 7.55769231,2.36842105 7.26923077,2.36842105 L6.11538462,2.36842105 C5.82692308,2.36842105 5.76923077,2.30459211 5.76923077,2.01315789 L5.76923077,0.710526316 L3.23076923,0.710526316 L3.23076923,2.01777632 C3.23076923,2.30921053 3.17307692,2.36842105 2.88461538,2.36842105 L1.5,2.36842105 C1.21153846,2.36842105 1.15384615,2.30459211 1.15384615,2.01315789 L1.15384615,0.710526316 L0.692307692,0.710526316 C0.0969230769,0.710526316 -4.88242615e-13,0.843276316 -4.88242615e-13,1.42105263 L-4.88242615e-13,8.28947368 C-0.00230769231,8.86488158 0.137076923,9 0.692307692,9 L0.692307692,9 Z M6.92307692,6.75461842 L6.92307692,6.28093421 C6.92307692,5.98488158 6.86088462,5.92567105 6.57692308,5.92567105 L6.11538462,5.92105263 C5.84088462,5.92105263 5.76923077,5.98725 5.76923077,6.27631579 L5.76923077,6.75 C5.76923077,7.04143421 5.82692308,7.10526316 6.11538462,7.10526316 L6.57692308,7.10526316 C6.86538462,7.10526316 6.92307692,7.04605263 6.92307692,6.75461842 L6.92307692,6.75461842 Z M5.07692308,6.75461842 L5.07692308,6.28093421 C5.07692308,5.98488158 5.01473077,5.92567105 4.73076923,5.92567105 L4.26923077,5.92105263 C3.99473077,5.92105263 3.92307692,5.98725 3.92307692,6.27631579 L3.92307692,6.75 C3.92307692,7.04143421 3.98076923,7.10526316 4.26923077,7.10526316 L4.73076923,7.10526316 C5.01923077,7.10526316 5.07692308,7.04605263 5.07692308,6.75461842 L5.07692308,6.75461842 Z M3.23076923,6.75461842 L3.23076923,6.28093421 C3.23076923,5.98488158 3.16857692,5.92567105 2.88461538,5.92567105 L2.42307692,5.92105263 C2.14857692,5.92105263 2.07692308,5.98725 2.07692308,6.27631579 L2.07692308,6.75 C2.07692308,7.04143421 2.13461538,7.10526316 2.42307692,7.10526316 L2.88461538,7.10526316 C3.17307692,7.10526316 3.23076923,7.04605263 3.23076923,6.75461842 L3.23076923,6.75461842 Z M6.92307692,4.85988158 L6.92307692,4.38619737 C6.92307692,4.09014474 6.86088462,4.03093421 6.57692308,4.03093421 L6.11538462,4.02631579 C5.84088462,4.02631579 5.76923077,4.09251316 5.76923077,4.38157895 L5.76923077,4.85526316 C5.76923077,5.14669737 5.82692308,5.21052632 6.11538462,5.21052632 L6.57692308,5.21052632 C6.86538462,5.21052632 6.92307692,5.15131579 6.92307692,4.85988158 L6.92307692,4.85988158 Z M5.07692308,4.85988158 L5.07692308,4.38619737 C5.07692308,4.09014474 5.01473077,4.03093421 4.73076923,4.03093421 L4.26923077,4.02631579 C3.99473077,4.02631579 3.92307692,4.09251316 3.92307692,4.38157895 L3.92307692,4.85526316 C3.92307692,5.14669737 3.98076923,5.21052632 4.26923077,5.21052632 L4.73076923,5.21052632 C5.01923077,5.21052632 5.07692308,5.15131579 5.07692308,4.85988158 L5.07692308,4.85988158 Z M3.23076923,4.85988158 L3.23076923,4.38619737 C3.23076923,4.09014474 3.16857692,4.03093421 2.88461538,4.03093421 L2.42307692,4.02631579 C2.14857692,4.02631579 2.07692308,4.09251316 2.07692308,4.38157895 L2.07692308,4.85526316 C2.07692308,5.14669737 2.13461538,5.21052632 2.42307692,5.21052632 L2.88461538,5.21052632 C3.17307692,5.21052632 3.23076923,5.15131579 3.23076923,4.85988158 L3.23076923,4.85988158 Z M7.38461538,1.54409211 L7.38461538,0.359881579 C7.38461538,0.0638289474 7.32242308,0.00461842105 7.03846154,0.00461842105 L6.57692308,0 C6.30242308,0 6.23076923,0.0661973684 6.23076923,0.355263158 L6.23076923,1.53947368 C6.23076923,1.83090789 6.28846154,1.89473684 6.57692308,1.89473684 L7.03846154,1.89473684 C7.32692308,1.89473684 7.38461538,1.83552632 7.38461538,1.54409211 L7.38461538,1.54409211 Z M2.76923077,1.54409211 L2.76923077,0.359881579 C2.76923077,0.0638289474 2.70703846,0.00461842105 2.42307692,0.00461842105 L1.96153846,0 C1.68703846,0 1.61538462,0.0661973684 1.61538462,0.355263158 L1.61538462,1.53947368 C1.61538462,1.83090789 1.67307692,1.89473684 1.96153846,1.89473684 L2.42307692,1.89473684 C2.71153846,1.89473684 2.76923077,1.83552632 2.76923077,1.54409211 L2.76923077,1.54409211 Z" id="Fill-1" fill="#FFD400" mask="url(#mask-2)"></path>
                            </g>
                        </g>
                    </g>
                </g>
            </g>
        </g>
    </g>
</svg>