<?xml version="1.0" encoding="UTF-8" standalone="no"?>
<svg width="9px" height="11px" viewBox="0 0 9 11" version="1.1" xmlns="http://www.w3.org/2000/svg" xmlns:xlink="http://www.w3.org/1999/xlink">
    <!-- Generator: sketchtool 3.7.2 (28276) - http://www.bohemiancoding.com/sketch -->
    <title>19572006-454C-4B34-B621-0F5ED9AD5D56</title>
    <desc>Created with sketchtool.</desc>
    <defs></defs>
    <g id="findtruck" stroke="none" stroke-width="1" fill="none" fill-rule="evenodd">
        <g id="inicial" transform="translate(-118.000000, -407.000000)" fill="#FFD400">
            <g id="Navbar">
                <g id="Group-8" transform="translate(29.000000, 327.000000)">
                    <g id="Group-6" transform="translate(0.000000, 34.000000)">
                        <g id="endereço-copy-2" transform="translate(89.000000, 45.000000)">
                            <g id="Page-1" transform="translate(0.000000, 1.000000)">
                                <path d="M4.58688462,3.553 C4.35830769,3.553 4.17219231,3.74797802 4.17219231,3.98756044 L4.17219231,6.0163956 L2.26811538,6.0163956 C2.03942308,6.0163956 1.85342308,6.21089011 1.85342308,6.45059341 C1.85342308,6.69065934 2.03942308,6.88575824 2.26811538,6.88575824 L4.58688462,6.88575824 C4.81592308,6.88575824 5.00226923,6.69078022 5.00226923,6.45059341 L5.00226923,3.98756044 C5.00238462,3.74797802 4.81592308,3.553 4.58688462,3.553" id="Fill-1"></path>
                                <path d="M4.44992308,9.41914286 C2.61069231,9.41914286 1.11415385,7.89993407 1.11415385,6.03307692 C1.11415385,4.16537363 2.61057692,2.6458022 4.44992308,2.6458022 C6.28984615,2.6458022 7.78638462,4.16537363 7.78638462,6.03307692 C7.78638462,7.89981319 6.28973077,9.41914286 4.44992308,9.41914286 M8.90134615,6.03331868 C8.90134615,4.5180989 8.16011538,3.11759341 6.915,2.27385714 L7.10584615,1.95183516 C7.50069231,2.21801099 7.85296154,2.54305495 8.15376923,2.91886813 L8.22796154,3.01121978 L8.51526923,2.18851648 L8.51734615,2.18235165 C8.62280769,1.8069011 8.32892308,1.37693407 7.66730769,0.936934066 L7.95646154,0.424527473 L7.99142308,0.359978022 L7.98357692,0.35610989 C7.98969231,0.332659341 7.99303846,0.308483516 7.99303846,0.283824176 C7.99303846,0.127285714 7.8675,0 7.71334615,0 C7.6275,0 7.54661538,0.0403736264 7.49411538,0.107824176 L7.49007692,0.107824176 L7.18430769,0.650692308 C6.76915385,0.432384615 6.41757692,0.321901099 6.13846154,0.321901099 C5.93180769,0.321901099 5.76842308,0.383307692 5.65303846,0.504307692 L5.09642308,1.18981319 L5.21365385,1.20794505 C5.70565385,1.28373626 6.17953846,1.43785714 6.62307692,1.66571429 L6.43130769,1.98906593 C5.81134615,1.6742967 5.14534615,1.51473626 4.45026923,1.51473626 C3.75553846,1.51473626 3.08965385,1.67417582 2.46980769,1.98906593 L2.27803846,1.66571429 C2.72261538,1.43749451 3.19626923,1.28373626 3.68688462,1.20854945 L3.80423077,1.19053846 L3.25176923,0.509263736 L3.24761538,0.504549451 C3.13234615,0.383428571 2.96907692,0.322021978 2.76242308,0.322021978 C2.48342308,0.322021978 2.13173077,0.432626374 1.71623077,0.650813187 L1.43053846,0.143 L1.38623077,0.0657582418 L1.37665385,0.0751868132 C1.32576923,0.0271978022 1.25896154,0 1.18696154,0 C1.03315385,0 0.907846154,0.127285714 0.907846154,0.283824176 C0.907846154,0.296274725 0.908653846,0.308604396 0.910269231,0.320813187 L0.886269231,0.320813187 L1.23323077,0.936934066 C0.5715,1.37778022 0.277961538,1.80762637 0.383769231,2.18247253 L0.672461538,3.01121978 L0.746538462,2.91886813 C1.04792308,2.54305495 1.40030769,2.21801099 1.79446154,1.95183516 L1.98553846,2.27385714 C0.740769231,3.11710989 0,4.51749451 0,6.03331868 C0,7.56775824 0.687,8.90589011 1.95530769,9.74587912 L1.56230769,10.4186923 L1.50507692,10.5222857 L1.52815385,10.5222857 C1.52642308,10.5348571 1.52561538,10.5473077 1.52561538,10.5598791 C1.52561538,10.7164176 1.7535,10.8797253 1.90776923,10.8797253 C1.99338462,10.8797253 2.07415385,10.8386264 2.127,10.7706923 L2.13103846,10.7706923 L2.51042308,10.0969121 C3.11861538,10.3979011 3.77123077,10.5506923 4.45061538,10.5506923 C5.12988462,10.5506923 5.78215385,10.3979011 6.39034615,10.0969121 L6.75,10.7357582 L6.771,10.7706923 L6.77434615,10.7706923 C6.82707692,10.8387473 6.90773077,10.8798462 6.99288462,10.8798462 C7.14726923,10.8798462 7.37503846,10.6808791 7.37503846,10.5240989 C7.37503846,10.5117692 7.37411538,10.4993187 7.37238462,10.486989 L7.39673077,10.486989 L6.97938462,9.74587912 C8.24815385,8.90492308 8.90134615,7.56679121 8.90134615,6.03331868" id="Fill-3"></path>
                            </g>
                        </g>
                    </g>
                </g>
            </g>
        </g>
    </g>
</svg>