<?xml version="1.0" encoding="UTF-8" standalone="no"?>
<svg width="14px" height="30px" viewBox="0 0 14 30" version="1.1" xmlns="http://www.w3.org/2000/svg" xmlns:xlink="http://www.w3.org/1999/xlink">
    <!-- Generator: sketchtool 3.7.2 (28276) - http://www.bohemiancoding.com/sketch -->
    <title>91ED7D17-299E-4619-BDDF-14AE563C47F4</title>
    <desc>Created with sketchtool.</desc>
    <defs></defs>
    <g id="findtruck" stroke="none" stroke-width="1" fill="none" fill-rule="evenodd">
        <g id="inicial" transform="translate(-1299.000000, -842.000000)" fill="#FFD400">
            <g id="Group-5-Copy-2" transform="translate(1276.000000, 827.000000)">
                <g id="Group-13" transform="translate(23.000000, 15.000000)">
                    <g id="Page-1">
                        <polygon id="Fill-1" points="5.831 7.07310811 8.12864706 7.07310811 8.12864706 6.4427027 5.831 6.4427027"></polygon>
                        <polygon id="Fill-2" points="5.831 12.8983784 8.12864706 12.8983784 8.12864706 12.2691892 5.831 12.2691892"></polygon>
                        <g id="Group-7">
                            <path d="M6.97982353,27.692027 C4.42564706,27.692027 2.35364706,25.652027 2.35364706,23.1360811 C2.35364706,21.447973 3.29741176,19.9909459 4.68217647,19.2036486 L4.68217647,5.08986486 C4.68217647,3.85824324 5.73011765,2.86054054 6.97982353,2.86054054 C8.22952941,2.86054054 9.28117647,3.85783784 9.28117647,5.08986486 L9.28117647,19.2044595 C10.6651176,19.9921622 11.6068235,21.4487838 11.6068235,23.1356757 C11.6068235,25.6516216 9.53852941,27.692027 6.97982353,27.692027 M11.3239412,17.7535135 L11.3239412,4.27459459 C11.3239412,1.91432432 9.37917647,0 6.97982353,0 C4.58417647,0 2.45452941,1.91472973 2.45452941,4.27459459 L2.45452941,17.9022973 C0.955294118,19.1631081 0,21.0352703 0,23.1291892 C0,26.9237838 3.12447059,30 6.98023529,30 C10.8364118,30 13.9608824,26.9237838 13.9608824,23.1291892 C13.9604706,20.9509459 12.929,19.0127027 11.3239412,17.7535135" id="Fill-3"></path>
                            <path d="M8.21717647,20.1454054 L8.21717647,15.7078378 L5.74411765,15.7078378 L5.74411765,20.1454054 C4.54547059,20.627027 3.69847059,21.7824324 3.69847059,23.1356757 C3.69847059,24.9206757 5.16805882,26.367973 6.97982353,26.367973 C8.79529412,26.367973 10.2615882,24.9210811 10.2615882,23.1356757 C10.2615882,21.7824324 9.41705882,20.627027 8.21717647,20.1454054" id="Fill-5"></path>
                        </g>
                    </g>
                </g>
            </g>
        </g>
    </g>
</svg>