<?xml version="1.0" encoding="UTF-8" standalone="no"?>
<svg width="119px" height="33px" viewBox="0 0 119 33" version="1.1" xmlns="http://www.w3.org/2000/svg" xmlns:xlink="http://www.w3.org/1999/xlink">
    <!-- Generator: sketchtool 3.7.2 (28276) - http://www.bohemiancoding.com/sketch -->
    <title>07219DE1-3709-46D6-985D-1BBA2E8C13FB</title>
    <desc>Created with sketchtool.</desc>
    <defs></defs>
    <g id="findtruck" stroke="none" stroke-width="1" fill="none" fill-rule="evenodd">
        <g id="about" transform="translate(-976.000000, -717.000000)" fill="#333333">
            <g id="google-play-+-logotype-+-Disponível-na-Copy" transform="translate(975.630963, 716.000000)">
                <g id="google-play" transform="translate(0.456369, 11.647622)">
                    <path d="M0.865486503,0.789136064 C0.475764511,0.909272826 0.223556133,1.29808983 0.223556133,1.8863457 L0.225958118,20.4004268 C0.225958118,20.9821728 0.470360045,21.3650718 0.849273108,21.492902 L11.360958,11.1327337 L0.865486503,0.789136064" id="left"></path>
                    <path d="M0.849273108,21.492902 C1.12189835,21.5840402 1.46358066,21.5414302 1.83588826,21.3402159 L14.6636867,14.3876706 L11.360958,11.1327337 L0.849273108,21.492902" id="bottom"></path>
                    <path d="M14.6654882,14.3876706 L19.0395021,12.0174848 C19.9264349,11.5351623 19.9264349,10.7504266 19.0395021,10.2692878 L14.6492748,7.89022478 L11.360958,11.1309583 L14.6654882,14.3876706" id="right"></path>
                    <path d="M14.6486743,7.89022478 L1.83588826,0.947148455 C1.4725881,0.751260434 1.13751125,0.705691317 0.866086999,0.789136064 L11.360958,11.1309583 L14.6486743,7.89022478" id="top"></path>
                </g>
                <path d="M38.0638124,27.3094525 L35.3471679,27.9225642 C34.2464584,28.0935963 33.2580418,28.2439153 32.211377,28.2439153 C26.9714477,28.2439153 24.9747981,24.4427408 24.9747981,21.4677284 C24.9747981,17.834627 27.8037354,14.4660632 32.6485382,14.4660632 C33.6735851,14.4660632 34.6595998,14.6146067 35.557942,14.8560639 C36.9817183,15.2502071 37.6476686,15.7360804 38.0638124,16.0207395 L36.4857085,17.497889 L35.8203588,17.6446571 L36.2947508,16.8995724 C35.6522199,16.2811344 34.471044,15.1395393 32.2293919,15.1395393 C29.2323157,15.1395393 26.9714477,17.3848539 26.9714477,20.6628713 C26.9714477,24.1835294 29.5529806,27.4952798 33.6934015,27.4952798 C34.9100067,27.4952798 35.5363241,27.2544144 36.104994,27.0295279 L36.104994,24.0113137 L33.2364239,24.163408 L34.7568802,23.3585509 L38.7826063,23.3585509 L38.2901994,23.8254864 C38.1574898,23.936746 38.1394749,23.9746216 38.1022441,24.1237569 C38.0824278,24.2941973 38.0638124,24.8362922 38.0638124,25.026854 L38.0638124,27.3094525 Z M44.2939598,28.0024581 C41.072298,28.0024581 39.3518766,25.5304815 39.3518766,23.2922685 C39.3518766,20.6770747 41.5190671,18.4394535 44.5996123,18.4394535 C47.5768722,18.4394535 49.4408122,20.7380307 49.4408122,23.1514185 C49.4408122,25.5085846 47.5990905,28.0024581 44.2939598,28.0024581 Z M46.828654,26.3868258 C47.3150559,25.7476745 47.4363561,24.9499191 47.4363561,24.1722851 C47.4363561,22.4134355 46.5836516,19.0590751 44.0729772,19.0590751 C43.402223,19.0590751 42.7362728,19.316511 42.2498709,19.7366938 C41.457216,20.4356175 41.3166999,21.3138587 41.3166999,22.1755292 C41.3166999,24.1486128 42.3105211,27.4029579 44.7623468,27.4029579 C45.5532002,27.4029579 46.3608675,27.0247934 46.828654,26.3868258 Z M55.0782699,28.0024581 C51.8572086,28.0024581 50.1337847,25.5304815 50.1337847,23.2922685 C50.1337847,20.6770747 52.3003748,18.4394535 55.382121,18.4394535 C58.3611823,18.4394535 60.2269238,20.7380307 60.2269238,23.1514185 C60.2269238,25.5085846 58.3828002,28.0024581 55.0782699,28.0024581 Z M57.6123636,26.3868258 C58.1023685,25.7476745 58.2212667,24.9499191 58.2212667,24.1722851 C58.2212667,22.4134355 57.3709642,19.0590751 54.8578878,19.0590751 C54.1895356,19.0590751 53.5163795,19.316511 53.0311786,19.7366938 C52.2397247,20.4356175 52.0986081,21.3138587 52.0986081,22.1755292 C52.0986081,24.1486128 53.0882257,27.4029579 55.5442549,27.4029579 C56.3369098,27.4029579 57.1457781,27.0247934 57.6123636,26.3868258 Z M67.6418501,19.4194854 C68.1072346,19.7964663 69.0782368,20.5965889 69.0782368,22.1139813 C69.0782368,23.5929063 68.2321378,24.2900546 67.3788328,24.9499191 C67.1170165,25.2097222 66.8107634,25.4914222 66.8107634,25.926992 C66.8107634,26.3690716 67.1170165,26.6087533 67.3373985,26.7874789 L68.0694033,27.3443691 C68.9593386,28.0847192 69.7706089,28.7635215 69.7706089,30.1424312 C69.7706089,32.0208257 67.9258848,33.915199 64.4400047,33.915199 C61.5035786,33.915199 60.0840057,32.5368811 60.0840057,31.0591398 C60.0840057,30.3400946 60.4473059,29.3215953 61.6458962,28.6238552 C62.9021341,27.8669344 64.6039401,27.7657354 65.5154933,27.7065548 C65.2308581,27.3443691 64.9059897,26.965021 64.9059897,26.3459911 C64.9059897,26.0074777 65.009275,25.8056716 65.1089574,25.5677653 C64.8873743,25.5884785 64.6639897,25.6097836 64.461022,25.6097836 C62.3118464,25.6097836 61.0970427,24.0296597 61.0970427,22.4726162 C61.0970427,21.5541322 61.522194,20.535041 62.3953153,19.7964663 C63.5506699,18.8590444 64.928208,18.6974812 66.0229125,18.6974812 L70.1987626,18.6974812 L68.90049,19.4194854 L67.6418501,19.4194854 Z M66.2060638,28.2853417 C66.0397264,28.2640367 65.940044,28.2640367 65.7394783,28.2640367 C65.5557265,28.2640367 64.461022,28.3030959 63.6131215,28.5836123 C63.1645509,28.7451755 61.8680797,29.2227635 61.8680797,30.6413242 C61.8680797,32.0569259 63.2678362,33.0777925 65.4332253,33.0777925 C67.3788328,33.0777925 68.4116861,32.1587166 68.4116861,30.9212488 C68.4116861,29.9027495 67.7433339,29.365389 66.2060638,28.2853417 Z M66.7885451,24.4906771 C67.2569321,24.0296597 67.2977658,23.3928756 67.2977658,23.0312817 C67.2977658,21.5949669 66.4288479,19.3579375 64.7444562,19.3579375 C64.2190221,19.3579375 63.6497518,19.6177406 63.3266848,20.0195774 C62.9838016,20.4356175 62.8811167,20.9753452 62.8811167,21.4943597 C62.8811167,22.8318429 63.6725706,25.0499344 65.4134089,25.0499344 C65.9214287,25.0499344 66.4678801,24.8067019 66.7885451,24.4906771 Z M73.180226,26.2489348 C73.180226,27.0247934 73.320742,27.145522 73.9866923,27.2064781 C74.333779,27.2467209 74.6796648,27.2644751 75.0219476,27.304718 L74.2725284,27.7444304 L70.7013779,27.7444304 C71.1697649,27.145522 71.2502314,27.0857495 71.2502314,26.6868718 L71.2502314,26.2412413 L71.2424249,14.3672315 L69.6655221,14.3672315 L71.1835763,13.6464109 L74.0815707,13.6464109 C73.4534517,14.0050458 73.2654964,14.2234225 73.1850299,14.9223462 L73.180226,26.2489348 Z M83.1406554,26.4033964 L82.1714546,27.304718 C81.9474695,27.4260384 81.7246855,27.5668884 81.5025019,27.6669037 C80.8293457,27.9681333 80.1447801,28.0438846 79.5364776,28.0438846 C78.8891427,28.0438846 77.8743043,28.0024581 76.8390489,27.2644751 C75.4008607,26.2660972 74.7721412,24.5498578 74.7721412,23.0543622 C74.7721412,19.9580295 77.3296543,18.4394535 79.4157778,18.4394535 C80.1447801,18.4394535 80.8935988,18.6193627 81.5025019,18.9987108 C82.5149384,19.6585753 82.7767547,20.5161032 82.9220748,20.9753452 L78.1583389,22.8720857 L76.59825,22.9916307 C77.1032672,25.5304815 78.845907,27.0070392 80.7716981,27.0070392 C81.7336929,27.0070392 82.4476828,26.6975243 83.1028241,26.3785405 C83.1028241,26.3785405 83.2343328,26.3110745 83.1406554,26.4033964 Z M80.2666809,21.3535097 C80.6534004,21.215027 80.8545666,21.095482 80.8545666,20.8173328 C80.8545666,20.0195774 79.93881,19.0981344 78.845907,19.0981344 C78.0364382,19.0981344 76.5165825,19.7195314 76.5165825,21.8772587 C76.5165825,22.2139967 76.5574162,22.5726315 76.5778331,22.9312664 L80.2666809,21.3535097 Z M88.9816813,26.4886165 L88.9816813,31.5751952 L87.9566344,31.5751952 L87.9566344,18.6317907 L88.9816813,18.6317907 L88.9816813,20.1059812 C89.649433,19.1531724 90.8696411,18.398027 92.286812,18.398027 C94.8287122,18.398027 96.5407267,20.2983184 96.5407267,23.3064719 C96.5407267,26.2945039 94.8287122,28.2344463 92.286812,28.2344463 C90.9489066,28.2344463 89.7503163,27.5544604 88.9816813,26.4886165 Z M95.4394167,23.3064719 C95.4394167,21.0392604 94.240226,19.3100012 92.1138691,19.3100012 C90.7933781,19.3100012 89.5305348,20.3326431 88.9816813,21.2244959 L88.9816813,25.3677346 C89.5305348,26.2613628 90.7933781,27.3212886 92.1138691,27.3212886 C94.240226,27.3212886 95.4394167,25.5772342 95.4394167,23.3064719 Z M97.9404832,15.0578699 L98.9649296,15.0578699 L98.9649296,28.0012745 L97.9404832,28.0012745 L97.9404832,15.0578699 Z M107.472759,27.9734596 C107.404302,27.6485577 107.35266,27.3621233 107.314828,27.1230333 C107.283603,26.8845352 107.265588,26.6407109 107.265588,26.3927439 C106.914297,26.9011058 106.416486,27.3242476 105.780561,27.6574348 C105.144035,27.9929892 104.539335,28.1575115 103.71005,28.1575115 C102.711425,28.1575115 101.936184,27.9154625 101.383128,27.424263 C100.831872,26.9336552 100.554443,26.2690563 100.554443,25.4280989 C100.554443,24.5883252 100.956175,23.9065639 101.757237,23.3851822 C102.558298,22.8614332 103.593554,22.6010383 104.875013,22.6010383 L107.265588,22.6010383 L107.265588,21.4369545 C107.265588,20.7664375 107.033796,20.2391377 106.570814,19.8568306 C106.10603,19.4739316 105.453891,19.2804108 104.608392,19.2804108 C103.835554,19.2804108 103.208636,19.457361 102.731241,19.8017925 C102.25805,20.1533257 102.019653,20.5888955 102.019653,21.113828 L100.970587,21.113828 L100.948969,21.0635244 C100.911138,20.3557236 101.239609,19.7349184 101.937986,19.1987415 C102.63336,18.6631564 103.544313,18.3938844 104.665439,18.3938844 C105.782963,18.3938844 106.68731,18.6590138 107.368873,19.188089 C108.049836,19.7118379 108.391518,20.4687587 108.391518,21.4582595 L108.391518,26.0802699 C108.391518,26.4122735 108.407731,26.7330327 108.449766,27.0455067 C108.493002,27.3585724 108.562059,27.6710464 108.653935,27.9734596 L107.472759,27.9734596 Z M103.835554,27.237252 C104.706273,27.237252 105.33199,27.0455067 105.971518,26.6661586 C106.606843,26.2891777 107.039201,25.7973863 107.265588,25.2020288 L107.265588,23.4029364 L104.863603,23.4029364 C103.946045,23.4029364 103.186417,23.602967 102.588924,24.0065792 C101.990229,24.4090078 101.686979,24.8960647 101.686979,25.4624237 C101.686979,25.9968252 101.879137,26.4241096 102.261053,26.7478279 C102.644169,27.075097 103.167802,27.237252 103.835554,27.237252 Z M110.466833,30.7383805 C110.686014,30.834845 111.060123,30.8940257 111.297319,30.8940257 C111.924237,30.8940257 112.360797,30.6413242 112.752921,29.7488797 L113.500539,28.079393 L109.462803,18.6317907 L110.606148,18.6317907 L114.069809,26.8188447 L117.499843,18.6317907 L118.659401,18.6317907 L113.734733,30.0619455 C113.22371,31.2396408 112.419646,31.8059998 111.315334,31.8059998 C110.98386,31.8059998 110.546699,31.7480028 110.290887,31.6704761 L110.466833,30.7383805 Z" id="logotype"></path>
                <text id="Em-breve-na" font-family="HelveticaNeue-Medium, Helvetica Neue" font-size="8.69087838" font-weight="400">
                    <tspan x="27.1725903" y="8">Em breve na</tspan>
                </text>
            </g>
        </g>
    </g>
</svg>