<?xml version="1.0" encoding="UTF-8" standalone="no"?>
<svg width="20px" height="18px" viewBox="0 0 20 18" version="1.1" xmlns="http://www.w3.org/2000/svg" xmlns:xlink="http://www.w3.org/1999/xlink">
    <!-- Generator: sketchtool 3.7.2 (28276) - http://www.bohemiancoding.com/sketch -->
    <title>126ACB0C-DA41-4FB8-A96F-B86D5D75D063</title>
    <desc>Created with sketchtool.</desc>
    <defs></defs>
    <g id="findtruck" stroke="none" stroke-width="1" fill="none" fill-rule="evenodd">
        <g id="inicial" transform="translate(-1160.000000, -31.000000)" stroke="#333333" fill="#333333">
            <g id="Group-2-Copy-4" transform="translate(1135.000000, 18.000000)">
                <g id="Group-15" transform="translate(25.000000, 11.000000)">
                    <g id="Group-16">
                        <g id="Group-13" transform="translate(0.000000, 2.000000)">
                            <path d="M9.99964,15.1194 C6.9859,12.97596 2.68192,9.13944 2.68192,6.91932 C2.68192,5.24838 3.93526,2.93376 6.2884,2.93376 C8.42896,2.93376 9.1846,4.78236 9.21376,4.85562 C9.3367,5.18034 9.64792,5.39274 9.99514,5.39562 L10.00108,5.39562 C10.34614,5.39562 10.65736,5.18196 10.78444,4.8612 C10.8154,4.78236 11.5714,2.93376 13.71124,2.93376 C16.06456,2.93376 17.31826,5.2482 17.31826,6.91932 C17.31808,9.13692 13.01374,12.97434 9.99964,15.1194 M13.71106,1.25184 C11.85328,1.25184 10.68058,2.15598 10,2.97354 C9.31942,2.15598 8.1469,1.25184 6.2884,1.25184 C3.1249,1.25184 1,4.18242 1,6.91932 C1,10.90362 8.65324,16.2435 9.52588,16.83912 C9.6688,16.9365 9.8344,16.98528 10,16.98528 C10.1656,16.98528 10.3312,16.9365 10.47412,16.83912 C11.34676,16.2435 19,10.90362 19,6.91932 C19,4.18242 16.87474,1.25184 13.71106,1.25184" id="Page-1"></path>
                        </g>
                    </g>
                </g>
            </g>
        </g>
    </g>
</svg>