<?xml version="1.0" encoding="UTF-8" standalone="no"?>
<svg width="115px" height="31px" viewBox="0 0 115 31" version="1.1" xmlns="http://www.w3.org/2000/svg" xmlns:xlink="http://www.w3.org/1999/xlink">
    <!-- Generator: sketchtool 3.7.2 (28276) - http://www.bohemiancoding.com/sketch -->
    <title>41528BDA-F823-4626-A5B4-4652DADB8339</title>
    <desc>Created with sketchtool.</desc>
    <defs></defs>
    <g id="findtruck" stroke="none" stroke-width="1" fill="none" fill-rule="evenodd">
        <g id="about" transform="translate(-833.000000, -720.000000)" fill="#333333">
            <g id="app-store-+-apple-+-Disponível-na" transform="translate(832.947662, 718.781081)">
                <path d="M43.1995391,27.259616 L40.8447642,27.259616 L39.5548743,23.2961409 L35.0713664,23.2961409 L33.842653,27.259616 L31.5500915,27.259616 L35.9921238,13.7661582 L38.7357321,13.7661582 L43.1995391,27.259616 L43.1995391,27.259616 Z M39.166041,21.6332862 L37.9995409,18.1098592 C37.8761511,17.749912 37.6449249,16.9022617 37.3037884,15.5679222 L37.2623128,15.5679222 C37.1264804,16.1418098 36.9076968,16.9894602 36.606999,18.1098592 L35.4612367,21.6332862 L39.166041,21.6332862 Z M54.6229448,22.2751075 C54.6229448,23.9298508 54.1656768,25.237828 53.2511407,26.1980252 C52.4319984,27.0527731 51.4148103,27.4796401 50.2006134,27.4796401 C48.8899857,27.4796401 47.9484905,27.0193132 47.3750909,26.0986595 L47.3336154,26.0986595 L47.3336154,31.224105 L45.1229681,31.224105 L45.1229681,20.7329112 C45.1229681,19.692613 45.0949721,18.6249386 45.0410539,17.529888 L46.9852207,17.529888 L47.1086105,19.0720843 L47.150086,19.0720843 C47.8873141,17.9101139 49.0061173,17.3301426 50.5075325,17.3301426 C51.6812908,17.3301426 52.6611509,17.7833719 53.4450389,18.6908445 C54.2310008,19.5993309 54.6229448,20.7937473 54.6229448,22.2751075 Z M52.370822,22.3541945 C52.370822,21.4071785 52.1530753,20.6264479 51.7155081,20.0120028 C51.2375023,19.3711954 50.5956681,19.0507917 49.7910422,19.0507917 C49.2456386,19.0507917 48.7500057,19.2292444 48.3072541,19.5810801 C47.8634656,19.9359576 47.5731367,20.3993263 47.4373043,20.973214 C47.3688696,21.240893 47.3346523,21.4599032 47.3346523,21.6322722 L47.3346523,23.2545695 C47.3346523,23.9622967 47.5565465,24.5595049 48.000335,25.0472081 C48.4441235,25.5349112 49.0206337,25.7782558 49.7298658,25.7782558 C50.5624876,25.7782558 51.2105432,25.4639357 51.6740326,24.8373233 C52.1385588,24.2096971 52.370822,23.3823255 52.370822,22.3541945 Z M66.0670883,22.2751075 C66.0670883,23.9298508 65.6098203,25.237828 64.6942473,26.1980252 C63.8761419,27.0527731 62.8589539,27.4796401 61.6447569,27.4796401 C60.3341292,27.4796401 59.392634,27.0193132 58.8202713,26.0986595 L58.7787958,26.0986595 L58.7787958,31.224105 L56.5681485,31.224105 L56.5681485,20.7329112 C56.5681485,19.692613 56.5401525,18.6249386 56.4862343,17.529888 L58.4304011,17.529888 L58.5537909,19.0720843 L58.5952664,19.0720843 C59.3314576,17.9101139 60.4502608,17.3301426 61.9527129,17.3301426 C63.1254343,17.3301426 64.1052944,17.7833719 64.8912562,18.6908445 C65.6741074,19.5993309 66.0670883,20.7937473 66.0670883,22.2751075 Z M63.8149655,22.3541945 C63.8149655,21.4071785 63.5961819,20.6264479 63.1586148,20.0120028 C62.680609,19.3711954 62.0408485,19.0507917 61.2351857,19.0507917 C60.6887453,19.0507917 60.1941492,19.2292444 59.7503607,19.5810801 C59.3065723,19.9359576 59.0172802,20.3993263 58.8814478,20.973214 C58.81405,21.240893 58.7787958,21.4599032 58.7787958,21.6322722 L58.7787958,23.2545695 C58.7787958,23.9622967 59.00069,24.5595049 59.4424047,25.0472081 C59.8861932,25.5338972 60.4627035,25.7782558 61.1740093,25.7782558 C62.0066311,25.7782558 62.6546867,25.4639357 63.1181761,24.8373233 C63.5827024,24.2096971 63.8149655,23.3823255 63.8149655,22.3541945 Z M78.8622982,23.4756075 C78.8622982,24.6233829 78.4548008,25.5572178 77.6366954,26.2781261 C76.7377127,27.0659543 75.4861877,27.4593613 73.8779729,27.4593613 C72.3931479,27.4593613 71.2027994,27.1795151 70.3017429,26.6188086 L70.813966,24.8170446 C71.7844941,25.3909323 72.8493791,25.6788901 74.0096578,25.6788901 C74.8422797,25.6788901 75.4903353,25.4943537 75.9558984,25.127309 C76.4193878,24.7602642 76.650614,24.2674914 76.650614,23.6530463 C76.650614,23.105521 76.4598264,22.6441802 76.0772144,22.2700379 C75.6966762,21.8958956 75.0610632,21.5481156 74.1734863,21.2266979 C71.757535,20.3455877 70.5505962,19.0548474 70.5505962,17.3575189 C70.5505962,16.2482731 70.9736469,15.3387727 71.8207852,14.6310455 C72.6648128,13.9223043 73.7908742,13.5684407 75.1989695,13.5684407 C76.454642,13.5684407 77.4977523,13.7823812 78.3303741,14.2092482 L77.7777123,15.9714686 C77.0000456,15.5577828 76.1207637,15.3509399 75.1367561,15.3509399 C74.3590894,15.3509399 73.7514725,15.538518 73.3159791,15.9116464 C72.9478835,16.2452313 72.7633173,16.6518195 72.7633173,17.133439 C72.7633173,17.6667693 72.9738057,18.1078314 73.3968564,18.4545974 C73.764952,18.7750011 74.4337454,19.1217672 75.4042735,19.4959095 C76.5915113,19.9633339 77.463535,20.5098453 78.0244919,21.1364576 C78.583375,21.7610421 78.8622982,22.5427866 78.8622982,23.4756075 Z M86.1713285,19.1521852 L83.7346394,19.1521852 L83.7346394,23.8761122 C83.7346394,25.0776261 84.1639115,25.6778761 85.0245293,25.6778761 C85.419584,25.6778761 85.7472409,25.6444162 86.0064632,25.5774965 L86.0676396,27.2190586 C85.6321462,27.3782465 85.0587466,27.4583474 84.3484777,27.4583474 C83.4754172,27.4583474 82.7931442,27.1977659 82.300622,26.6776168 C81.8101735,26.1564538 81.5633939,25.2824412 81.5633939,24.0545649 L81.5633939,19.1501574 L80.1117494,19.1501574 L80.1117494,17.5278601 L81.5633939,17.5278601 L81.5633939,15.7463749 L83.7346394,15.1055674 L83.7346394,17.5278601 L86.1713285,17.5278601 L86.1713285,19.1521852 Z M97.1654622,22.314651 C97.1654622,23.8102064 96.7278951,25.0380826 95.8548346,25.9982798 C94.9392616,26.9868673 93.7240277,27.4796401 92.209133,27.4796401 C90.7491933,27.4796401 89.5868408,27.006132 88.7200016,26.059116 C87.8531624,25.1120999 87.4197428,23.9166696 87.4197428,22.4758668 C87.4197428,20.9681443 87.8656051,19.7331705 88.7604403,18.7729733 C89.6532017,17.8117621 90.8580666,17.3311565 92.3729614,17.3311565 C93.8329011,17.3311565 95.0076963,17.8046646 95.8942363,18.7526945 C96.7424115,19.6723343 97.1654622,20.8596532 97.1654622,22.314651 Z M94.8718638,22.3846126 C94.8718638,21.4872794 94.6758918,20.7177021 94.2787633,20.0758808 C93.815274,19.2992059 93.1527019,18.9118825 92.2941579,18.9118825 C91.405544,18.9118825 90.7305293,19.3002199 90.2670399,20.0758808 C89.8699114,20.7187161 89.6739394,21.5004606 89.6739394,22.42517 C89.6739394,23.3225032 89.8699114,24.0920805 90.2670399,24.732888 C90.7450457,25.5095628 91.4128022,25.8968863 92.274457,25.8968863 C93.1184846,25.8968863 93.7810566,25.5014513 94.2590624,24.7126092 C94.6665598,24.0586206 94.8718638,23.2809319 94.8718638,22.3846126 Z M104.351103,19.4310176 C104.132319,19.3914741 103.899019,19.3711954 103.654313,19.3711954 C102.876647,19.3711954 102.275251,19.6581392 101.8522,20.2330408 C101.484105,20.7400087 101.299539,21.3808162 101.299539,22.1544492 L101.299539,27.259616 L99.0899281,27.259616 L99.1106659,20.594002 C99.1106659,19.472589 99.0826699,18.4515556 99.0277148,17.5309019 L100.953218,17.5309019 L101.034095,19.392488 L101.095271,19.392488 C101.328571,18.7526945 101.696667,18.2376151 102.200595,17.8513056 C102.693117,17.5035256 103.225041,17.3301426 103.798441,17.3301426 C104.002708,17.3301426 104.187274,17.3443377 104.351103,17.3696861 L104.351103,19.4310176 Z M114.237839,21.9344251 C114.237839,22.3217486 114.211917,22.6482359 114.156962,22.914901 L107.52502,22.914901 C107.550942,23.8761122 107.871341,24.6112157 108.487253,25.1181836 C109.046136,25.5714129 109.768848,25.7985345 110.656425,25.7985345 C111.638358,25.7985345 112.53423,25.6454302 113.339893,25.3382076 L113.686214,26.8388326 C112.744719,27.2403512 111.633174,27.4400966 110.350542,27.4400966 C108.807652,27.4400966 107.596565,26.9959927 106.71521,26.1087988 C105.835928,25.221605 105.39525,24.0302304 105.39525,22.535689 C105.39525,21.0685239 105.804821,19.8467313 106.625,18.872339 C107.483544,17.8320408 108.643823,17.3118918 110.103763,17.3118918 C111.53778,17.3118918 112.623403,17.8320408 113.360631,18.872339 C113.944399,19.6986966 114.237839,20.7207439 114.237839,21.9344251 Z M112.129844,21.3737186 C112.14436,20.7329112 112.000233,20.1793022 111.700572,19.7118778 C111.31796,19.1106139 110.730044,18.8104889 109.938897,18.8104889 C109.216186,18.8104889 108.62827,19.1035163 108.179297,19.6915991 C107.811201,20.1590235 107.592418,20.71973 107.52502,21.3727047 L112.129844,21.3727047 L112.129844,21.3737186 Z" id="app-store"></path>
                <path d="M18.5203408,15.7966825 C18.4900143,12.5027998 21.2800569,10.9003151 21.4076376,10.8257096 C19.8275197,8.57425946 17.3783893,8.26663963 16.5177428,8.24211181 C14.460766,8.0305593 12.4654882,9.44499732 11.4176535,9.44499732 C10.3489041,9.44499732 8.73532244,8.26255166 6.99625163,8.29729942 C4.75836134,8.33102518 2.66478361,9.59727425 1.51655767,11.5635884 C-0.853096248,15.5728661 0.914209628,21.4646546 3.18451795,24.7053937 C4.32019498,26.2925485 5.647243,28.064684 7.38422232,28.0023425 C9.0835549,27.9338689 9.71832097,26.9435579 11.7690232,26.9435579 C13.8009021,26.9435579 14.3969757,28.0023425 16.1684645,27.9624847 C17.9922406,27.9338689 19.1404665,26.368176 20.2364053,24.7667133 C21.5488129,22.9475661 22.0758674,21.1560127 22.0967823,21.0640334 C22.0539068,21.0497255 18.5548504,19.7446407 18.5203408,15.7966825 Z M15.1739628,6.11023484 C16.0879423,4.99319672 16.7132967,3.47349343 16.5397034,1.93130631 C15.2168383,1.9885379 13.5624727,2.82555 12.6098007,3.9180603 C11.7669317,4.88077751 11.0139967,6.45873438 11.2085049,7.94266792 C12.6945059,8.05099915 14.2202451,7.20989908 15.1739628,6.11023484 Z" id="apple"></path>
                <text id="Em-breve-na" font-family="HelveticaNeue-Medium, Helvetica Neue" font-size="8.69087838" font-weight="400">
                    <tspan x="35.0773438" y="8.36211993">Em breve na</tspan>
                </text>
            </g>
        </g>
    </g>
</svg>