<?xml version="1.0" encoding="UTF-8" standalone="no"?>
<svg width="26px" height="30px" viewBox="0 0 26 30" version="1.1" xmlns="http://www.w3.org/2000/svg" xmlns:xlink="http://www.w3.org/1999/xlink">
    <!-- Generator: sketchtool 3.7.2 (28276) - http://www.bohemiancoding.com/sketch -->
    <title>068A6BF9-8D70-4B88-A607-887E7D424DB0</title>
    <desc>Created with sketchtool.</desc>
    <defs>
        <polygon id="path-1" points="5.16959062e-05 19.0772459 19.2003766 19.0772459 19.2003766 0.000102729045 5.16959062e-05 0.000102729045 5.16959062e-05 19.0772459"></polygon>
    </defs>
    <g id="findtruck" stroke="none" stroke-width="1" fill="none" fill-rule="evenodd">
        <g id="inicial" transform="translate(-1293.000000, -762.000000)">
            <g id="Group-5-Copy-3" transform="translate(1276.000000, 747.000000)">
                <g id="Group-11" transform="translate(17.000000, 15.000000)">
                    <path d="M16.5106546,28.2748752 C14.5642187,30.2365699 11.4088517,30.2370599 9.46185918,28.2748752 L3.87037779,22.6397642 C-1.29012593,17.4386608 -1.29012593,9.0063016 3.87037779,3.80519821 C8.90502362,-1.2683994 17.0676178,-1.2683994 22.1019333,3.80519821 C27.2627674,9.0063016 27.2627674,17.4386608 22.1019333,22.6397642 L16.5106546,28.2748752 Z" id="Fill-1" fill="#FFD400"></path>
                    <g id="Page-1" transform="translate(3.466667, 3.444444)">
                        <mask id="mask-2" fill="white">
                            <use xlink:href="#path-1"></use>
                        </mask>
                        <g id="Clip-2"></g>
                        <path d="M15.2410388,15.1433912 C12.3248727,18.0408639 7.69395345,18.2216671 4.56376632,15.6858006 L15.7869476,4.53456277 C18.3391745,7.6446846 18.1572049,12.2459185 15.2410388,15.1433912 M3.95892421,3.9341115 C5.51445404,2.38906667 7.55747626,1.6160306 9.59998152,1.6160306 C11.3881429,1.6160306 13.1757874,2.2077499 14.6367137,3.3911885 L3.41301544,14.54294 C0.861305497,11.4328181 1.04327509,6.83158421 3.95892421,3.9341115 M16.3917897,2.79073723 C12.6469382,-0.930108772 6.5530248,-0.930108772 2.80869029,2.79073723 C-0.93616117,6.51158324 -0.93616117,12.5659195 2.80869029,16.2867655 C4.68111602,18.1471885 7.14080725,19.0774 9.59998152,19.0774 C12.0596727,19.0774 14.519364,18.1471885 16.3917897,16.2867655 C20.1366412,12.5659195 20.1366412,6.51158324 16.3917897,2.79073723" id="Fill-1" fill="#4A4A4A" mask="url(#mask-2)"></path>
                    </g>
                </g>
            </g>
        </g>
    </g>
</svg>