<?xml version="1.0" encoding="UTF-8" standalone="no"?>
<svg width="19px" height="19px" viewBox="0 0 19 19" version="1.1" xmlns="http://www.w3.org/2000/svg" xmlns:xlink="http://www.w3.org/1999/xlink">
    <!-- Generator: sketchtool 3.7.2 (28276) - http://www.bohemiancoding.com/sketch -->
    <title>26C512AC-3BBC-46AF-B96D-B42C7D0862D0</title>
    <desc>Created with sketchtool.</desc>
    <defs></defs>
    <g id="findtruck" stroke="none" stroke-width="1" fill="none" fill-rule="evenodd">
        <g id="inicial" transform="translate(-1301.000000, -30.000000)" stroke="#333333" fill="#333333">
            <g id="Group-2" transform="translate(1289.000000, 18.000000)">
                <g id="Group-15" transform="translate(12.000000, 11.000000)">
                    <g id="Page-1" transform="translate(0.000000, 1.000000)">
                        <path d="M14.1893605,14.1894053 C11.6657553,16.7130105 7.65822895,16.8704842 4.94941316,14.6618263 L14.6617816,4.94945789 C16.8704395,7.65827368 16.7129658,11.6658 14.1893605,14.1894053 M4.42599211,4.42648421 C5.77212368,3.0808 7.54012368,2.40751053 9.30767632,2.40751053 C10.8551237,2.40751053 12.4021237,2.92287895 13.6663868,3.95361579 L3.95357105,13.6664316 C1.74536053,10.9576158 1.90283421,6.95008947 4.42599211,4.42648421 M15.1852026,3.43064211 C11.9444658,0.189905263 6.67088684,0.189905263 3.43059737,3.43064211 C0.189860526,6.67137895 0.189860526,11.9445105 3.43059737,15.1852474 C5.05096579,16.8056158 7.17954474,17.6158 9.30767632,17.6158 C11.4362553,17.6158 13.5648342,16.8056158 15.1852026,15.1852474 C18.4259395,11.9445105 18.4259395,6.67137895 15.1852026,3.43064211" id="Fill-1"></path>
                    </g>
                </g>
            </g>
        </g>
    </g>
</svg>