<?xml version="1.0" encoding="UTF-8" standalone="no"?>
<svg width="26px" height="29px" viewBox="0 0 26 29" version="1.1" xmlns="http://www.w3.org/2000/svg" xmlns:xlink="http://www.w3.org/1999/xlink">
    <!-- Generator: sketchtool 3.7.2 (28276) - http://www.bohemiancoding.com/sketch -->
    <title>34AA7212-9C1F-4577-9DD6-A34A2158CF2F</title>
    <desc>Created with sketchtool.</desc>
    <defs></defs>
    <g id="findtruck" stroke="none" stroke-width="1" fill="none" fill-rule="evenodd">
        <g id="inicial" transform="translate(-1291.000000, -761.000000)">
            <g id="Group-5-Copy-2" transform="translate(1274.000000, 745.000000)">
                <g id="pin-copy-6" transform="translate(17.000000, 16.000000)">
                    <g id="Group-11">
                        <path d="M16.5890522,26.8158652 C14.5993186,28.7230497 11.3670771,28.7171192 9.3834587,26.8158652 L3.87037779,21.5317001 C-1.29012593,16.5851557 -1.29012593,8.56550375 3.87037779,3.61895937 C8.90502362,-1.20631979 17.0676178,-1.20631979 22.1019333,3.61895937 C27.2627674,8.56550375 27.2627674,16.5851557 22.1019333,21.5317001 L16.5890522,26.8158652 Z" id="Fill-1" fill="#FFFFFF"></path>
                        <path d="M12.9996325,19.5328684 C9.92338533,17.4724979 5.5301376,13.7846632 5.5301376,11.6505845 C5.5301376,10.0444022 6.8094728,7.81948591 9.21141867,7.81948591 C11.3963755,7.81948591 12.167688,9.59644296 12.1974528,9.66686375 C12.3229427,9.97899914 12.6406176,10.1831675 12.9950392,10.1859359 L13.0011024,10.1859359 C13.3533192,10.1859359 13.6709941,9.98055636 13.8007099,9.67222749 C13.832312,9.59644296 14.603992,7.81948591 16.7882139,7.81948591 C19.1903435,7.81948591 20.4700461,10.0442292 20.4700461,11.6505845 C20.4698624,13.7822409 16.0762472,17.4709407 12.9996325,19.5328684 M16.7880301,6.20274914 C14.8917184,6.20274914 13.6946957,7.07184897 13,7.85772423 C12.3053043,7.07184897 11.1084653,6.20274914 9.21141867,6.20274914 C5.98230533,6.20274914 3.81333333,9.01975378 3.81333333,11.6505845 C3.81333333,15.480472 11.6253072,20.6134036 12.5160464,21.1859402 C12.6619307,21.2795462 12.8309653,21.3264357 13,21.3264357 C13.1690347,21.3264357 13.3380693,21.2795462 13.4839536,21.1859402 C14.3746928,20.6134036 22.1866667,15.480472 22.1866667,11.6505845 C22.1866667,9.01975378 20.0173272,6.20274914 16.7880301,6.20274914" id="Page-1" fill="#333333"></path>
                    </g>
                </g>
            </g>
        </g>
    </g>
</svg>